<?xml version="1.0" encoding="utf-8"?>
<!-- Generator: Adobe Illustrator 19.2.1, SVG Export Plug-In . SVG Version: 6.00 Build 0)  -->
<svg version="1.1" id="Layer_1" xmlns="http://www.w3.org/2000/svg" xmlns:xlink="http://www.w3.org/1999/xlink" x="0px" y="0px"
	 viewBox="0 0 46.9 43.5" style="enable-background:new 0 0 46.9 43.5;" xml:space="preserve">
<style type="text/css">
	.st0{fill:#8B0037;}
</style>
<path class="st0" d="M45.8,23.9c2.5-2.5,0.7-7.5-3.6-7.5h-8.4c0.4-2.4,1.1-6.4,1-6.8c-0.2-3.6-2.5-7.9-2.6-8.1
	c-0.4-0.8-2.5-1.8-4.6-1.4c-2.7,0.6-3,2.3-3,2.8c0,0,0.1,4.8,0.1,6c-1.3,2.9-5.8,10.4-7.2,11c-0.3-0.2-0.7-0.3-1.1-0.3H2.2
	c-1.2,0-2.2,1-2.2,2.2v19.8c0.1,1.1,1,1.9,2.1,1.9H15c1.1,0,2.1-0.9,2.1-2.1v-0.7c0,0,0.5,0,0.7,0.1c0.8,0.5,1.9,1.2,3.2,1.2h16.3
	c7.2,0,7.4-6.4,6.8-7.3c1.2-1.3,2-3.7,0.9-5.5C45.7,28.6,47.1,26.3,45.8,23.9z M14.5,41.6H2.1V21.8h12.4V41.6z M42.5,23.8l-1.1,0.5
	c3.3,0.9,2.5,4.8,0.2,5l-1.1,0.5c3.2,0.8,2.7,4.7,0.2,5l-1.1,0.5c2.6,0.4,2,4.9-2,4.9H21c-1.4,0-2.6-1.6-3.7-1.6h-0.9V23.3
	c1.1-0.7,2.5-1.6,3.2-2.2c1.4-1.2,7.3-10.7,7.3-11.8c0-1.2-0.1-6.3-0.1-6.3s1.1-1.5,3.7-0.4c0,0,2.2,4,2.4,7.3c0,0-1,6.6-1.5,8.7H43
	C46.2,18.5,45.6,23.3,42.5,23.8z"/>
</svg>
