<?xml version="1.0" encoding="utf-8"?>
<!-- Generator: Adobe Illustrator 19.2.1, SVG Export Plug-In . SVG Version: 6.00 Build 0)  -->
<svg version="1.1" id="Layer_1" xmlns="http://www.w3.org/2000/svg" xmlns:xlink="http://www.w3.org/1999/xlink" x="0px" y="0px"
	 viewBox="0 0 146.6 137.5" style="enable-background:new 0 0 146.6 137.5;" xml:space="preserve">
<style type="text/css">
	.st0{fill:#8B0037;}
</style>
<path class="st0" d="M143.1,76.3c7.8-7.8,2.2-23.4-11.2-23.4h-26.2c1.2-7.5,3.4-20,3.1-21.2c-0.6-11.2-7.8-24.7-8.1-25.3
	c-1.2-2.5-7.8-5.6-14.4-4.4c-8.4,1.9-9.4,7.2-9.4,8.7c0,0,0.3,15,0.3,18.7C73.1,38.5,59,61.9,54.7,63.8c-0.9-0.6-2.2-0.9-3.4-0.9
	H6.9C3.1,62.8,0,66,0,69.7v61.9c0.3,3.4,3.1,5.9,6.6,5.9h40.3c3.4,0,6.6-2.8,6.6-6.6v-2.2c0,0,1.6,0,2.2,0.3c2.5,1.6,5.9,3.7,10,3.7
	h50.9c22.5,0,23.1-20,21.2-22.8c3.7-4.1,6.2-11.6,2.8-17.2C142.8,91,147.1,83.8,143.1,76.3z M45.3,131.6H6.6V69.7h38.7
	C45.3,69.7,45.3,131.6,45.3,131.6z M132.8,76l-3.4,1.6c10.3,2.8,7.8,15,0.6,15.6l-3.4,1.6c10,2.5,8.4,14.7,0.6,15.6l-3.4,1.6
	c8.1,1.2,6.2,15.3-6.2,15.3H65.6c-4.4,0-8.1-5-11.6-5h-2.8V74.4c3.4-2.2,7.8-5,10-6.9C65.6,63.8,84,34.1,84,30.7
	c0-3.7-0.3-19.7-0.3-19.7s3.4-4.7,11.6-1.2c0,0,6.9,12.5,7.5,22.8c0,0-3.1,20.6-4.7,27.2h36.2C144.3,59.4,142.5,74.4,132.8,76z"/>
</svg>
