<svg id="Layer_1" xmlns="http://www.w3.org/2000/svg" viewBox="0 0 178 137.5"><style>.st0{fill:#8b0037}</style><path class="st0" d="M111.3 66.7c2.5-2.5.7-7.5-3.6-7.5h-8.4c.4-2.4 1.1-6.4 1-6.8-.2-3.6-2.5-7.9-2.6-8.1-.4-.8-2.5-1.8-4.6-1.4-2.7.6-3 2.3-3 2.8 0 0 .1 4.8.1 6-1.3 2.9-5.8 10.4-7.2 11-.3-.2-.7-.3-1.1-.3H67.7c-1.2 0-2.2 1-2.2 2.2v19.8c.1 1.1 1 1.9 2.1 1.9h12.9c1.1 0 2.1-.9 2.1-2.1v-.7s.5 0 .7.1c.8.5 1.9 1.2 3.2 1.2h16.3c7.2 0 7.4-6.4 6.8-7.3 1.2-1.3 2-3.7.9-5.5.7-.6 2.1-2.9.8-5.3zM80 84.4H67.6V64.6H80v19.8zm28-17.8l-1.1.5c3.3.9 2.5 4.8.2 5l-1.1.5c3.2.8 2.7 4.7.2 5l-1.1.5c2.6.4 2 4.9-2 4.9H86.5c-1.4 0-2.6-1.6-3.7-1.6h-.9V66.1c1.1-.7 2.5-1.6 3.2-2.2 1.4-1.2 7.3-10.7 7.3-11.8 0-1.2-.1-6.3-.1-6.3s1.1-1.5 3.7-.4c0 0 2.2 4 2.4 7.3 0 0-1 6.6-1.5 8.7h11.6c3.2-.1 2.6 4.7-.5 5.2z"/></svg>